<svg width="26" height="26" viewBox="0 0 26 26" fill="none" xmlns="http://www.w3.org/2000/svg">
<path d="M2.97925 3.52075L5.23258 3.91075L6.27583 16.3398C6.35925 17.3549 7.2075 18.1338 8.22583 18.1306H20.0439C21.0157 18.1328 21.8401 17.4178 21.9777 16.4558L23.0058 9.35125C23.1206 8.55717 22.5692 7.8205 21.7762 7.70567C21.7068 7.69592 5.59442 7.6905 5.59442 7.6905" stroke="#001833" stroke-width="1.5" stroke-linecap="round" stroke-linejoin="round"/>
<path d="M15.3021 11.6944H18.3062" stroke="#001833" stroke-width="1.5" stroke-linecap="round" stroke-linejoin="round"/>
<path fill-rule="evenodd" clip-rule="evenodd" d="M7.75059 21.8861C8.07667 21.8861 8.33992 22.1504 8.33992 22.4754C8.33992 22.8015 8.07667 23.0659 7.75059 23.0659C7.4245 23.0659 7.16125 22.8015 7.16125 22.4754C7.16125 22.1504 7.4245 21.8861 7.75059 21.8861Z" fill="#001833" stroke="#001833" stroke-width="1.5" stroke-linecap="round" stroke-linejoin="round"/>
<path fill-rule="evenodd" clip-rule="evenodd" d="M19.9709 21.8861C20.297 21.8861 20.5613 22.1504 20.5613 22.4754C20.5613 22.8015 20.297 23.0659 19.9709 23.0659C19.6448 23.0659 19.3816 22.8015 19.3816 22.4754C19.3816 22.1504 19.6448 21.8861 19.9709 21.8861Z" fill="#001833" stroke="#001833" stroke-width="1.5" stroke-linecap="round" stroke-linejoin="round"/>
</svg>
